<?xml version="1.0" standalone="no"?>
<!DOCTYPE svg PUBLIC "-//W3C//DTD SVG 20010904//EN"
 "http://www.w3.org/TR/2001/REC-SVG-20010904/DTD/svg10.dtd">
<svg version="1.0" xmlns="http://www.w3.org/2000/svg"
 width="2020.000000pt" height="2049.000000pt" viewBox="0 0 2020.000000 2049.000000"
 preserveAspectRatio="xMidYMid meet">

<g transform="translate(0.000000,2049.000000) scale(0.100000,-0.100000)"
fill="#ffff" stroke="none">
<path d="M7059 20046 c-160 -122 -448 -293 -684 -407 -542 -261 -1131 -423
-1810 -496 -205 -22 -883 -25 -1075 -5 -516 54 -943 152 -1312 302 l-116 47
-426 -578 c-234 -317 -429 -584 -432 -592 -3 -9 30 -64 84 -138 495 -689 849
-1422 1026 -2126 106 -420 149 -765 149 -1193 0 -264 -10 -423 -44 -668 -146
-1054 -655 -2135 -1514 -3213 -152 -190 -336 -407 -477 -561 -54 -58 -98 -112
-98 -120 0 -7 213 -226 473 -486 l474 -474 0 -411 c1 -534 22 -892 79 -1336
274 -2146 1242 -3746 2888 -4775 892 -559 2001 -953 3276 -1166 343 -57 559
-85 1053 -136 l57 -6 726 -590 c399 -324 732 -592 739 -594 7 -3 345 267 751
599 l739 604 110 7 c895 57 1878 266 2710 576 401 149 901 385 1240 584 670
395 1257 888 1723 1446 829 995 1333 2242 1496 3705 39 348 48 517 53 1007 l5
498 465 470 465 470 -58 66 c-295 332 -460 531 -667 809 -832 1112 -1296 2226
-1386 3328 -14 163 -14 605 -1 762 31 362 97 706 201 1053 185 617 526 1283
970 1894 l78 107 -417 579 -416 579 -141 -49 c-1276 -447 -2719 -399 -3971
133 -281 119 -599 292 -843 459 -58 39 -110 69 -116 66 -7 -2 -81 -51 -166
-109 -463 -315 -985 -579 -1455 -736 -1365 -456 -2727 -234 -4074 662 -74 49
-165 112 -201 138 -37 27 -71 49 -76 49 -6 0 -30 -15 -54 -34z m139 -525 c237
-169 489 -317 777 -457 513 -249 1015 -397 1595 -470 171 -21 672 -30 870 -15
897 67 1789 392 2568 933 45 32 87 58 92 58 5 0 62 -35 127 -79 1104 -736
2757 -998 4236 -670 152 33 389 97 481 129 33 11 63 17 66 13 4 -5 113 -153
243 -331 l236 -322 -113 -168 c-567 -835 -901 -1706 -1010 -2637 -54 -458 -45
-986 24 -1461 79 -543 248 -1121 486 -1661 297 -675 755 -1384 1280 -1984
l101 -115 -399 -415 -400 -414 6 -86 c24 -349 28 -511 23 -899 -5 -415 -15
-583 -53 -885 -141 -1151 -532 -2158 -1161 -2990 -177 -233 -301 -375 -532
-605 -401 -400 -816 -715 -1336 -1012 -1072 -613 -2422 -992 -3775 -1060
l-245 -12 -639 -543 c-551 -468 -641 -541 -655 -531 -9 7 -298 248 -643 536
l-627 523 -128 10 c-1927 140 -3439 639 -4618 1524 -894 671 -1551 1561 -1947
2640 -321 874 -471 1929 -429 3015 7 162 14 311 17 330 5 34 -2 43 -396 458
l-401 423 79 87 c280 308 599 733 841 1119 807 1290 1157 2682 1006 3998 -106
919 -442 1799 -1012 2647 l-112 168 257 330 c180 233 261 330 272 326 8 -2 80
-27 160 -55 793 -277 1909 -313 2891 -96 652 145 1261 399 1703 710 50 35 92
64 94 64 2 1 47 -30 100 -68z"/>
<path d="M12940 18654 c-1536 -843 -3067 -1020 -4560 -525 -409 136 -774 298
-1143 507 -81 46 -151 84 -156 84 -5 0 -94 -42 -198 -94 -666 -334 -1324 -525
-2068 -601 -637 -65 -1291 -40 -2149 81 -29 4 -47 3 -44 -2 174 -298 269 -478
366 -694 288 -639 445 -1222 518 -1935 23 -214 26 -821 6 -1055 -61 -719 -240
-1456 -526 -2169 -47 -118 -85 -215 -83 -216 7 -6 14357 -11 14357 -5 0 4 -21
54 -46 111 -306 696 -499 1433 -570 2184 -22 227 -25 831 -6 1040 85 920 333
1737 760 2503 56 101 102 188 102 193 0 4 -12 7 -27 4 -64 -10 -492 -41 -778
-56 -272 -14 -913 -14 -1130 0 -686 45 -1211 153 -1715 353 -162 64 -451 206
-614 302 -71 42 -132 76 -135 76 -3 0 -76 -39 -161 -86z m338 -141 c154 -86
293 -153 462 -224 l115 -48 3 -3050 2 -3051 -365 0 -365 0 0 3225 c0 1774 3
3225 6 3225 3 0 67 -35 142 -77z m-938 -3328 l0 -3045 -360 0 -360 0 0 2918 0
2917 203 68 c111 37 267 94 347 126 80 33 151 59 158 60 9 1 12 -614 12 -3044z
m-4363 2974 c591 -238 1234 -383 1783 -404 80 -3 173 -8 208 -11 l62 -6 0
-774 0 -774 -1095 0 -1095 0 0 1010 c0 556 2 1010 4 1010 3 0 63 -23 133 -51z
m-2297 -1034 l0 -935 -1085 0 c-860 0 -1086 3 -1089 13 -2 6 -20 81 -40 166
-70 294 -188 647 -318 953 -57 134 -224 475 -282 577 -20 35 -35 66 -32 68 2
2 102 -7 222 -21 932 -106 1665 -84 2419 70 93 20 172 37 174 40 2 2 10 4 18
4 11 0 13 -163 13 -935z m9170 851 c85 -14 220 -32 300 -41 80 -9 164 -18 188
-21 l42 -5 -2 -2887 -3 -2887 -205 -3 c-113 -2 -274 0 -357 3 l-153 7 0 2935
c0 2790 1 2934 18 2929 9 -3 87 -16 172 -30z m2325 -298 c-359 -721 -559
-1421 -642 -2248 -24 -244 -24 -849 0 -1110 64 -677 220 -1325 476 -1971 44
-113 81 -208 81 -212 0 -4 -206 -6 -457 -5 l-458 3 -3 2871 -2 2871 37 7 c21
3 99 6 174 6 155 0 478 16 714 35 88 7 171 13 185 14 25 1 20 -10 -105 -261z
m-6355 -2708 l0 -2830 -335 0 -335 0 2 2803 3 2802 152 7 c146 6 464 36 472
44 2 2 13 4 23 4 17 0 18 -92 18 -2830z m-5140 -1885 l0 -945 -1310 0 -1310 0
21 53 c223 556 387 1136 469 1653 11 71 23 141 26 157 l6 27 1049 0 1049 0 0
-945z m4350 0 l0 -945 -1095 0 -1095 0 0 945 0 945 1095 0 1095 0 0 -945z"/>
<path d="M9781 11750 c-252 -35 -459 -175 -579 -390 -101 -181 -166 -527 -142
-763 45 -463 303 -788 694 -874 99 -22 300 -22 391 0 148 37 290 126 388 244
59 71 136 218 122 232 -16 15 -342 201 -351 200 -5 0 -27 -28 -49 -62 -106
-164 -303 -220 -475 -135 -79 38 -186 142 -222 213 -81 162 -90 476 -18 668
16 43 37 71 92 122 112 106 231 149 351 127 110 -21 207 -81 289 -180 16 -19
34 -32 40 -30 33 8 358 184 358 193 0 22 -87 142 -143 197 -178 175 -488 274
-746 238z"/>
<path d="M11683 11229 c4 -282 7 -732 7 -1001 l0 -488 549 0 c615 0 610 0 734
74 215 129 346 356 335 576 -8 142 -61 257 -171 370 l-60 61 22 27 c155 192
182 401 79 595 -61 114 -170 202 -322 261 l-81 31 -549 3 -549 3 6 -512z
m1024 66 c98 -58 98 -176 0 -249 -27 -20 -43 -21 -303 -24 l-274 -3 0 151 0
150 267 0 266 0 44 -25z m24 -723 c123 -64 154 -203 70 -319 -16 -22 -49 -50
-73 -61 -42 -21 -53 -21 -320 -15 l-278 6 0 209 0 208 274 0 274 0 53 -28z"/>
<path d="M6850 10750 l0 -980 205 0 205 0 0 405 0 405 290 0 290 0 -2 208 -3
207 -287 3 -288 2 0 155 0 155 500 0 500 0 0 210 0 210 -705 0 -705 0 0 -980z"/>
<path d="M2447 9443 c-3 -5 -12 -78 -21 -163 -78 -761 -53 -1491 75 -2135 315
-1581 1223 -2790 2689 -3580 914 -492 2058 -810 3350 -930 249 -23 2723 -23
3040 0 2742 202 4729 1334 5650 3220 332 682 518 1420 571 2275 15 238 6 915
-15 1140 -9 91 -16 168 -16 173 0 4 -3447 7 -7659 7 -4213 0 -7662 -3 -7664
-7z m7913 -1338 c909 -109 1622 -806 1754 -1716 9 -59 16 -133 16 -164 l0 -58
-82 116 c-407 570 -915 955 -1412 1069 -127 29 -360 36 -481 14 -105 -18 -96
-23 -166 95 -131 220 -121 416 30 597 l53 62 86 0 c48 0 139 -7 202 -15z
m-444 -17 c-109 -152 -142 -309 -97 -474 25 -93 50 -149 112 -245 36 -56 50
-85 43 -94 -198 -273 -258 -413 -258 -600 0 -95 3 -119 26 -177 40 -100 99
-181 216 -294 l104 -102 -22 -43 c-92 -182 -245 -351 -375 -415 -75 -37 -84
-39 -175 -39 -89 0 -100 2 -174 38 -219 104 -385 290 -469 523 -115 322 -93
747 76 1419 l43 170 69 48 c136 92 370 196 560 248 87 24 263 57 309 58 28 1
28 0 12 -21z m-1122 -618 c-81 -341 -114 -580 -114 -830 0 -377 87 -639 285
-858 31 -34 55 -68 52 -75 -3 -7 -33 -48 -66 -90 -96 -119 -217 -205 -340
-243 -69 -21 -218 -44 -288 -44 l-62 0 -19 53 c-92 250 -131 464 -132 719 0
486 162 933 474 1305 66 79 246 257 252 250 1 -1 -18 -85 -42 -187z m1770
-205 c260 -46 543 -185 816 -402 117 -92 347 -325 454 -458 99 -123 283 -395
292 -431 12 -46 -27 -275 -72 -431 -30 -104 -83 -243 -92 -243 -4 0 -16 17
-27 37 -11 21 -46 70 -78 110 -169 211 -436 324 -668 282 -41 -7 -78 -13 -83
-14 -4 0 -23 41 -40 90 -92 254 -235 424 -407 484 -146 50 -291 33 -477 -55
l-73 -35 -38 30 c-57 46 -150 148 -192 213 -126 195 -80 432 140 726 l66 87
60 11 c89 17 318 17 419 -1z m76 -1073 c144 -56 264 -213 344 -453 l35 -103
-50 -97 c-262 -500 -829 -824 -1697 -968 -98 -16 -225 -35 -284 -42 l-108 -12
-55 47 c-124 107 -257 252 -357 391 -41 57 -162 265 -156 269 1 2 50 8 108 15
231 25 371 85 510 217 47 46 106 109 129 142 l44 60 47 -34 c73 -52 188 -102
268 -116 262 -44 535 158 723 536 l41 84 70 32 c39 17 96 37 127 45 75 19 191
13 261 -13z m832 -585 c181 -66 350 -227 414 -392 l18 -47 -29 -52 c-85 -152
-202 -305 -340 -441 -276 -274 -629 -463 -1007 -540 -355 -71 -697 -51 -1037
61 -137 45 -333 135 -431 197 -64 42 -76 36 140 67 681 99 1218 319 1552 638
136 130 222 243 309 407 29 55 54 102 56 104 1 2 24 10 50 18 73 20 222 11
305 -20z"/>
</g>
</svg>
